<svg width="87" height="40" viewBox="0 0 87 40" fill="none" xmlns="http://www.w3.org/2000/svg">
<path d="M20 4.2406C10.2654 4.2406 2.34375 12.1623 2.34375 21.8968C2.34375 25.6362 3.51367 29.1072 5.50508 31.9653L7.83242 30.4137C6.45728 28.4512 5.58058 26.1833 5.27805 23.8061H7.5V22.3999H5.16523C5.15977 22.2327 5.15625 22.0652 5.15625 21.8968C5.15625 18.3516 6.39187 15.1022 8.45594 12.5532L9.81531 13.9126L10.8096 12.9183L9.39297 11.5017C11.9324 8.91068 15.4168 7.24998 19.2969 7.07013V9.35294H20.7031V7.07029C24.5832 7.25013 28.0676 8.91091 30.607 11.5019L29.1904 12.9185L30.1846 13.9128L31.544 12.5534C33.608 15.1026 34.8438 18.3518 34.8438 21.8972C34.8438 22.0654 34.8403 22.2331 34.8348 22.4001H32.5V23.8063H34.7219C34.4194 26.1834 33.5427 28.4512 32.1677 30.4137L34.495 31.9653C36.4863 29.1073 37.6562 25.6364 37.6562 21.897C37.6562 12.1625 29.7346 4.24076 20 4.24076V4.2406ZM21.2367 9.41482C22.6463 10.1924 23.8935 11.2899 24.8975 12.6364C25.9015 13.983 26.6401 15.5486 27.0655 17.2322L30.9691 15.8597C30.8618 15.6742 30.7498 15.4915 30.6331 15.3118L30.232 15.7144L27.8595 13.348L27.4095 12.8991L28.0227 12.284C26.1003 10.6675 23.7356 9.66764 21.2366 9.41474L21.2367 9.41482ZM33.4359 16.4339L19.7381 21.1683C18.7895 21.2983 18.0469 22.1215 18.0469 23.1031C18.0469 24.1734 18.9297 25.0562 20 25.0562C20.5289 25.0562 21.0117 24.8403 21.3651 24.4931L33.4359 16.4339ZM32.1459 18.959L27.4027 22.1403C27.2157 23.8088 26.7278 25.4183 25.968 26.8724C25.2082 28.3265 24.1922 29.5954 22.9808 30.603H28.9227C30.3912 29.1061 31.4595 27.2639 32.0292 25.2458H31.1313V21.1431H32.4611C32.4206 20.4072 32.3151 19.6764 32.1459 18.959ZM10 32.9468V35.7593H30V32.9468H10Z" fill="black"/>
<path d="M47.9233 28.437H45.7953V27.621C45.7953 27.5357 45.7633 27.461 45.6993 27.397C45.646 27.333 45.5767 27.301 45.4913 27.301H44.6113C44.526 27.301 44.4513 27.333 44.3873 27.397C44.334 27.461 44.3073 27.5357 44.3073 27.621V29.461C44.3073 29.5464 44.334 29.621 44.3873 29.685C44.4513 29.749 44.526 29.781 44.6113 29.781H46.0513C47.374 29.8024 48.0353 30.5064 48.0353 31.893V34.117C48.0353 35.525 47.374 36.229 46.0513 36.229H44.1633C42.8407 36.229 42.1793 35.525 42.1793 34.117V33.045H44.3073V34.197C44.3073 34.2824 44.334 34.357 44.3873 34.421C44.4513 34.485 44.526 34.517 44.6113 34.517H45.6033C45.6887 34.517 45.758 34.485 45.8113 34.421C45.8753 34.357 45.9073 34.2824 45.9073 34.197V32.165C45.9073 32.0797 45.8753 32.005 45.8113 31.941C45.758 31.877 45.6887 31.845 45.6033 31.845H44.1633C42.8407 31.845 42.1793 31.141 42.1793 29.733V27.669C42.1793 26.261 42.8407 25.557 44.1633 25.557H45.9393C47.262 25.557 47.9233 26.261 47.9233 27.669V28.437ZM53.3795 36.229H53.0435C52.4995 36.229 52.0621 36.101 51.7315 35.845V38.613H49.5875V28.261H51.3955V28.837C51.7261 28.3464 52.2755 28.101 53.0435 28.101H53.3795C54.7021 28.101 55.3635 28.805 55.3635 30.213V34.117C55.3635 35.525 54.7021 36.229 53.3795 36.229ZM51.7315 29.957V34.373C51.7315 34.4584 51.7581 34.533 51.8115 34.597C51.8755 34.661 51.9501 34.693 52.0355 34.693H52.9155C53.0008 34.693 53.0701 34.661 53.1235 34.597C53.1875 34.533 53.2195 34.4584 53.2195 34.373V29.957C53.2195 29.8717 53.1875 29.797 53.1235 29.733C53.0701 29.669 53.0008 29.637 52.9155 29.637H52.0355C51.9501 29.637 51.8755 29.669 51.8115 29.733C51.7581 29.797 51.7315 29.8717 51.7315 29.957ZM60.7738 28.101C62.0965 28.101 62.7578 28.805 62.7578 30.213V32.741H59.1258V34.373C59.1258 34.4584 59.1525 34.533 59.2058 34.597C59.2698 34.661 59.3445 34.693 59.4298 34.693H60.3098C60.3952 34.693 60.4645 34.661 60.5178 34.597C60.5818 34.533 60.6138 34.4584 60.6138 34.373V33.509H62.7578V34.117C62.7578 35.525 62.0965 36.229 60.7738 36.229H58.9658C57.6432 36.229 56.9818 35.525 56.9818 34.117V30.213C56.9818 28.805 57.6432 28.101 58.9658 28.101H60.7738ZM59.1258 31.333H60.6138V29.893C60.6138 29.8077 60.5818 29.733 60.5178 29.669C60.4645 29.605 60.3952 29.573 60.3098 29.573H59.4298C59.3445 29.573 59.2698 29.605 59.2058 29.669C59.1525 29.733 59.1258 29.8077 59.1258 29.893V31.333ZM67.887 28.101C69.2096 28.101 69.871 28.805 69.871 30.213V32.741H66.239V34.373C66.239 34.4584 66.2656 34.533 66.319 34.597C66.383 34.661 66.4576 34.693 66.543 34.693H67.423C67.5083 34.693 67.5776 34.661 67.631 34.597C67.695 34.533 67.727 34.4584 67.727 34.373V33.509H69.871V34.117C69.871 35.525 69.2096 36.229 67.887 36.229H66.079C64.7563 36.229 64.095 35.525 64.095 34.117V30.213C64.095 28.805 64.7563 28.101 66.079 28.101H67.887ZM66.239 31.333H67.727V29.893C67.727 29.8077 67.695 29.733 67.631 29.669C67.5776 29.605 67.5083 29.573 67.423 29.573H66.543C66.4576 29.573 66.383 29.605 66.319 29.669C66.2656 29.733 66.239 29.8077 66.239 29.893V31.333ZM73.5281 28.101C74.0721 28.101 74.5094 28.229 74.8401 28.485V25.717H76.9841V36.069H75.1761V35.493C74.8454 35.9837 74.2961 36.229 73.5281 36.229H73.1921C71.8694 36.229 71.2081 35.525 71.2081 34.117V30.213C71.2081 28.805 71.8694 28.101 73.1921 28.101H73.5281ZM74.8401 34.373V29.957C74.8401 29.8717 74.8081 29.797 74.7441 29.733C74.6907 29.669 74.6214 29.637 74.5361 29.637H73.6561C73.5707 29.637 73.4961 29.669 73.4321 29.733C73.3787 29.797 73.3521 29.8717 73.3521 29.957V34.373C73.3521 34.4584 73.3787 34.533 73.4321 34.597C73.4961 34.661 73.5707 34.693 73.6561 34.693H74.5361C74.6214 34.693 74.6907 34.661 74.7441 34.597C74.8081 34.533 74.8401 34.4584 74.8401 34.373ZM84.3785 30.213V34.117C84.3785 35.525 83.7171 36.229 82.3945 36.229H80.5865C79.2638 36.229 78.6025 35.525 78.6025 34.117V30.213C78.6025 28.805 79.2638 28.101 80.5865 28.101H82.3945C83.7171 28.101 84.3785 28.805 84.3785 30.213ZM82.2345 34.565V29.749C82.2345 29.6637 82.2025 29.589 82.1385 29.525C82.0851 29.461 82.0158 29.429 81.9305 29.429H81.0505C80.9651 29.429 80.8905 29.461 80.8265 29.525C80.7731 29.589 80.7465 29.6637 80.7465 29.749V34.565C80.7465 34.6504 80.7731 34.725 80.8265 34.789C80.8905 34.853 80.9651 34.885 81.0505 34.885H81.9305C82.0158 34.885 82.0851 34.853 82.1385 34.789C82.2025 34.725 82.2345 34.6504 82.2345 34.565Z" fill="#0C1421"/>
</svg>
